<?xml version="1.0" encoding="UTF-8"?>
<svg width="169px" height="38px" viewBox="0 0 169 38" version="1.1" xmlns="http://www.w3.org/2000/svg" xmlns:xlink="http://www.w3.org/1999/xlink">
    <!-- Generator: Sketch 48.1 (47250) - http://www.bohemiancoding.com/sketch -->
    <title>Page 1</title>
    <desc>Created with Sketch.</desc>
    <defs></defs>
    <g id="01_login" stroke="none" stroke-width="1" fill="none" fill-rule="evenodd" transform="translate(-636.000000, -128.000000)">
        <g id="Group" transform="translate(447.000000, 97.000000)" fill="#4DA1FF">
            <g id="Page-1" transform="translate(189.000000, 31.000000)">
                <path d="M40.7604,17.9448 L36.1564,28.6388 L45.9804,28.6388 L50.1384,18.9798 L50.1384,18.9788 C50.1504,18.9518 53.6414,10.7858 44.7904,8.5838 C43.4114,8.2408 41.7424,8.0368 39.7044,8.0368 L36.7024,8.0368 L26.8784,8.0368 L18.6924,8.0368 L8.8684,8.0368 L0.0004,28.6388 L9.8234,28.6388 L17.1524,11.6138 C19.4864,11.6268 22.4304,11.6388 25.3264,11.6428 L18.0104,28.6388 L27.8334,28.6388 L35.1754,11.5848 C37.8624,11.5158 42.3404,14.2748 40.7604,17.9448" id="Fill-1"></path>
                <path d="M79.072,14.2836 C72.738,12.6716 71.932,8.6396 79.993,8.9856 C88.054,9.3316 90.473,10.8286 90.473,10.8286 L97.267,2.6516 C97.267,2.6516 87.716,-0.1144 76.193,0.0036 C65.042,0.1186 55.234,3.9196 54.082,9.7926 C52.931,15.6656 55.925,17.1626 61.568,19.3496 C67.211,21.5386 74.696,22.3446 72.623,26.0296 C70.55,29.7146 56.04,25.9146 51.549,24.3026 L45.77,33.1776 C45.77,33.1776 55.579,38.0066 69.053,37.5456 C82.527,37.0856 93.566,30.2236 93.237,23.6116 C92.977,18.4036 85.405,15.8956 79.072,14.2836" id="Fill-3"></path>
                <path d="M102.9899,17.9155 C104.3429,16.1395 106.4919,14.6945 108.9259,14.6945 L119.6369,14.6945 L120.6849,12.6355 L108.9209,12.6355 C102.7839,12.6355 96.1479,15.6625 95.9009,20.9285 C95.7259,24.6455 100.6859,25.9795 103.3439,25.9795 L115.1309,25.9795 L115.8399,23.8525 L106.4319,23.8525 C103.4009,23.8525 100.8649,20.7065 102.9899,17.9155" id="Fill-6"></path>
                <path d="M136.384,19.9018 L125.111,19.9018 C126.668,17.3058 129.675,14.8598 132.377,14.8598 L138.685,14.8598 L136.384,19.9018 Z M145.491,12.7358 L139.654,12.7358 L130.939,12.7358 C130.131,12.7358 129.37,12.8198 128.646,12.9598 C119.77,14.6698 116.952,25.9798 116.952,25.9798 L122.889,25.9798 C122.889,25.9798 123.553,23.7218 124.158,22.0258 L135.415,22.0258 L133.612,25.9798 L139.549,25.9798 L144.538,14.8598 L145.491,12.7358 Z" id="Fill-8"></path>
                <path d="M161.7824,17.1362 C161.2444,19.6992 159.2104,19.8652 158.0494,19.9022 C156.0844,19.9642 150.1864,19.9022 150.1864,19.9022 L150.1424,19.9122 L152.4584,14.7582 L158.6204,14.7582 L158.9644,14.7582 C159.8694,14.7862 162.2184,15.0572 161.7824,17.1362 M166.0054,12.9372 C165.3354,12.7492 164.4924,12.6432 163.4554,12.6392 L163.4574,12.6352 L158.6204,12.6352 L155.6954,12.6352 L153.4134,12.6352 L149.0044,12.6352 L147.5754,12.6352 L141.4784,25.9802 L147.4164,25.9802 L149.1924,22.0262 L155.6064,22.0262 L157.9974,26.1372 L164.0364,26.1372 L161.0164,21.1242 C161.0164,21.1242 164.7204,20.5542 166.5434,19.0732 C168.0874,17.8182 169.9164,14.0332 166.0054,12.9372" id="Fill-10"></path>
            </g>
        </g>
    </g>
</svg>