<?xml version="1.0" encoding="UTF-8"?>
<svg width="234px" height="53px" viewBox="0 0 234 53" version="1.1" xmlns="http://www.w3.org/2000/svg" xmlns:xlink="http://www.w3.org/1999/xlink">
    <!-- Generator: Sketch 48.1 (47250) - http://www.bohemiancoding.com/sketch -->
    <title>Page 1</title>
    <desc>Created with Sketch.</desc>
    <defs>
        <polygon id="path-1" points="0 52.1687 233.721 52.1687 233.721 -0.0003 0 -0.0003"></polygon>
    </defs>
    <g id="styleguide" stroke="none" stroke-width="1" fill="none" fill-rule="evenodd" transform="translate(-253.000000, -136.000000)">
        <g id="Page-1" transform="translate(253.000000, 136.000000)">
            <path d="M62.1833,11.9165 C74.4723,14.9755 69.6253,26.3125 69.6093,26.3495 L69.6083,26.3515 L63.8363,39.7615 L50.1973,39.7615 L56.5893,24.9125 C58.7823,19.8185 52.5653,15.9885 48.8353,16.0835 L38.6423,39.7615 L25.0043,39.7615 L35.1613,16.1645 C31.1403,16.1595 27.0543,16.1425 23.8133,16.1245 L13.6383,39.7615 L0.0003,39.7615 L12.3123,11.1575 L25.9513,11.1575 L37.3163,11.1575 L50.9553,11.1575 L55.1223,11.1575 C57.9533,11.1575 60.2693,11.4395 62.1833,11.9165 Z" id="Fill-1" fill="#FEFEFE"></path>
            <path d="M64.5436,46.0607 C64.5436,46.0607 78.1626,52.7647 96.8686,52.1257 C115.5736,51.4857 130.8996,41.9607 130.4426,32.7807 C130.0836,25.5507 119.5706,22.0687 110.7776,19.8307 C101.9846,17.5927 100.8656,11.9957 112.0566,12.4757 C123.2486,12.9557 126.6056,15.0337 126.6056,15.0337 L136.0386,3.6817 C136.0386,3.6817 122.7786,-0.1593 106.7806,0.0057 C91.2996,0.1647 77.6826,5.4407 76.0846,13.5947 C74.4846,21.7487 78.6426,23.8267 86.4766,26.8647 C94.3106,29.9027 104.7026,31.0217 101.8246,36.1377 C98.9466,41.2547 78.8016,35.9777 72.5666,33.7397 L64.5436,46.0607 Z" id="Fill-3" fill="#FEFEFE"></path>
            <path d="M159.84,36.0688 L160.824,33.1158 L147.763,33.1158 C143.554,33.1158 140.033,28.7468 142.985,24.8728 C144.862,22.4068 147.846,20.4008 151.225,20.4008 L166.096,20.4008 L167.551,17.5418 L151.219,17.5418 C142.697,17.5418 133.486,21.7448 133.142,29.0558 C132.899,34.2168 139.785,36.0688 143.476,36.0688 L159.84,36.0688 Z" id="Fill-5" fill="#FEFEFE"></path>
            <mask id="mask-2" fill="white">
                <use xlink:href="#path-1"></use>
            </mask>
            <g id="Clip-8"></g>
            <polygon id="Fill-7" fill="#FEFEFE" mask="url(#mask-2)" points="168.653 30.5797 192.257 30.5797 192.257 27.6307 168.653 27.6307"></polygon>
            <path d="M178.6017,17.9917 C166.2797,20.3657 162.3677,36.0687 162.3677,36.0687 L170.6107,36.0687 C170.6107,36.0687 172.2997,30.3237 173.1877,28.5457 C175.1447,24.6227 179.7157,20.6307 183.7837,20.6307 L178.6017,20.6307 L178.6017,17.9917 Z" id="Fill-9" fill="#FEFEFE" mask="url(#mask-2)"></path>
            <polygon id="Fill-10" fill="#FEFEFE" mask="url(#mask-2)" points="185.4963 36.0688 193.7393 36.0688 200.6663 20.6308 192.5403 20.6308"></polygon>
            <path d="M181.7863,17.6821 C182.7013,17.6821 184.6733,20.6301 183.7833,20.6301 L192.5403,20.6301 L193.8853,17.6821 L181.7863,17.6821 Z" id="Fill-11" fill="#FEFEFE" mask="url(#mask-2)"></path>
            <polygon id="Fill-12" fill="#FEFEFE" mask="url(#mask-2)" points="193.8849 17.6821 192.5399 20.6301 200.6659 20.6301 201.9889 17.6821"></polygon>
            <path d="M181.7863,17.6821 C180.6653,17.6821 179.6083,17.7971 178.6013,17.9921 L178.6013,20.6301 L183.7833,20.6301 C184.6733,20.6301 182.7013,17.6821 181.7863,17.6821" id="Fill-13" fill="#FEFEFE" mask="url(#mask-2)"></path>
            <path d="M224.6076,23.7905 C223.8606,27.3505 221.0356,27.5795 219.4236,27.6305 C216.6966,27.7175 208.5086,27.6305 208.5086,27.6305 L208.4476,27.6445 L211.6626,20.4895 L220.2166,20.4895 L220.6956,20.4895 C221.9516,20.5285 225.2116,20.9045 224.6076,23.7905 M230.4696,17.9605 C229.5406,17.6995 228.3696,17.5525 226.9296,17.5465 L226.9316,17.5415 L220.2166,17.5415 L216.1576,17.5415 L212.9876,17.5415 L206.8666,17.5415 L204.8826,17.5415 L196.4186,36.0685 L204.6616,36.0685 L207.1286,30.5785 L216.0336,30.5785 L219.3526,36.2875 L227.7366,36.2875 L223.5446,29.3265 C223.5446,29.3265 228.6856,28.5365 231.2166,26.4795 C233.3606,24.7375 235.8986,19.4835 230.4696,17.9605" id="Fill-14" fill="#FEFEFE" mask="url(#mask-2)"></path>
        </g>
    </g>
</svg>